<svg width="25" height="24" viewBox="0 0 25 24" fill="none" xmlns="http://www.w3.org/2000/svg">
<path d="M9.64092 22.2895C10.1715 22.2895 10.6017 21.8594 10.6017 21.3288C10.6017 20.7982 10.1715 20.368 9.64092 20.368C9.11032 20.368 8.68018 20.7982 8.68018 21.3288C8.68018 21.8594 9.11032 22.2895 9.64092 22.2895Z" stroke="#5CA720" stroke-width="2.46591" stroke-linecap="round" stroke-linejoin="round"/>
<path d="M20.2092 22.2895C20.7398 22.2895 21.1699 21.8594 21.1699 21.3288C21.1699 20.7982 20.7398 20.368 20.2092 20.368C19.6786 20.368 19.2484 20.7982 19.2484 21.3288C19.2484 21.8594 19.6786 22.2895 20.2092 22.2895Z" stroke="#5CA720" stroke-width="2.46591" stroke-linecap="round" stroke-linejoin="round"/>
<path d="M1.95477 2.11365H5.79775L8.37254 14.978C8.4604 15.4203 8.70103 15.8177 9.05231 16.1004C9.4036 16.3832 9.84315 16.5334 10.294 16.5248H19.6325C20.0833 16.5334 20.5229 16.3832 20.8742 16.1004C21.2255 15.8177 21.4661 15.4203 21.5539 14.978L23.0911 6.91737H6.75849" stroke="#5CA720" stroke-width="2.46591" stroke-linecap="round" stroke-linejoin="round"/>
</svg>
