<svg width="120" height="32" viewBox="0 0 120 32" fill="none" xmlns="http://www.w3.org/2000/svg">
<path d="M33.5833 25.2583C31.9644 25.2583 30.5177 24.9139 29.2433 24.225L29.5275 21.745C30.0269 22.1067 30.6125 22.4167 31.2841 22.675C31.9558 22.9161 32.6877 23.0367 33.48 23.0367C34.2205 23.0367 34.7888 22.9161 35.185 22.675C35.5811 22.4339 35.7791 22.0722 35.7791 21.59C35.7791 21.0561 35.5638 20.6514 35.1333 20.3758C34.72 20.0831 34.1086 19.8075 33.2991 19.5492C32.4725 19.2736 31.7922 19.0067 31.2583 18.7483C30.7244 18.4728 30.2852 18.0939 29.9408 17.6117C29.5963 17.1294 29.4241 16.5094 29.4241 15.7517C29.4241 14.6667 29.8288 13.7711 30.6383 13.065C31.465 12.3417 32.6533 11.98 34.2033 11.98C35.5466 11.98 36.7694 12.2814 37.8716 12.8842L37.5875 15.2608C37.0536 14.8647 36.5197 14.5633 35.9858 14.3567C35.4691 14.1328 34.8922 14.0208 34.255 14.0208C33.5833 14.0208 33.058 14.15 32.6791 14.4083C32.3002 14.6667 32.1108 15.0456 32.1108 15.545C32.1108 15.9067 32.2055 16.1994 32.395 16.4233C32.5844 16.6472 32.86 16.8367 33.2216 16.9917C33.5833 17.1467 34.1516 17.3619 34.9266 17.6375C36.0288 18.0164 36.8986 18.4814 37.5358 19.0325C38.1902 19.5836 38.5175 20.3931 38.5175 21.4608C38.5175 22.5631 38.1127 23.4758 37.3033 24.1992C36.5111 24.9053 35.2711 25.2583 33.5833 25.2583ZM51.5108 12.2383V25H49.0566L48.9017 23.8892C48.075 24.8019 46.99 25.2583 45.6466 25.2583C43.9589 25.2583 42.7017 24.7589 41.875 23.76C41.0483 22.7611 40.635 21.3144 40.635 19.42V12.2383H43.3217V19.0583C43.3217 20.3672 43.5369 21.3403 43.9675 21.9775C44.4153 22.6147 45.13 22.9333 46.1117 22.9333C46.68 22.9333 47.1966 22.83 47.6616 22.6233C48.1266 22.3994 48.5141 22.0808 48.8241 21.6675V12.2383H51.5108ZM57.4817 25.2583C56.3623 25.2583 55.4409 24.9139 54.7176 24.225C54.0115 23.5361 53.6584 22.6319 53.6584 21.5125C53.6584 20.3931 54.0459 19.4975 54.8209 18.8258C55.6131 18.1542 56.569 17.6806 57.6884 17.405C58.8079 17.1122 59.9445 16.9572 61.0984 16.94C61.0812 15.9583 60.8659 15.2867 60.4526 14.925C60.0565 14.5461 59.4106 14.3567 58.5151 14.3567C57.964 14.3567 57.4129 14.4428 56.8617 14.615C56.3279 14.77 55.7337 15.0456 55.0792 15.4417L54.7692 13.2458C55.4065 12.8497 56.104 12.5483 56.8617 12.3417C57.6367 12.1178 58.429 12.0058 59.2384 12.0058C60.8229 12.0058 61.9767 12.4364 62.7001 13.2975C63.4234 14.1586 63.7851 15.6225 63.7851 17.6892V20.66C63.7851 21.3317 63.8109 21.8311 63.8626 22.1583C63.9315 22.4856 64.052 22.7181 64.2242 22.8558C64.4137 22.9936 64.7065 23.0625 65.1026 23.0625H65.4126L65.1026 25.2583H64.5084C63.6129 25.2583 62.9326 25.1206 62.4676 24.845C62.0198 24.5694 61.6581 24.1389 61.3826 23.5533C60.9176 24.0872 60.3492 24.5092 59.6776 24.8192C59.0059 25.1119 58.274 25.2583 57.4817 25.2583ZM58.3084 23.14C58.8079 23.14 59.3073 23.0194 59.8067 22.7783C60.3234 22.5372 60.754 22.2014 61.0984 21.7708V18.7742C57.9984 18.8775 56.4484 19.7472 56.4484 21.3833C56.4484 22.5544 57.0684 23.14 58.3084 23.14ZM76.3114 25.2583C75.192 25.2583 74.3567 24.9569 73.8056 24.3542C73.2717 23.7514 73.0047 22.985 73.0047 22.055V5.625H75.7172V20.7375C75.7172 21.4608 75.7603 21.9861 75.8464 22.3133C75.9325 22.6233 76.0961 22.83 76.3372 22.9333C76.5784 23.0194 76.9831 23.0625 77.5514 23.0625L77.2156 25.2583H76.3114ZM84.9446 25.2583C83.6185 25.2583 82.4646 24.9656 81.4829 24.38C80.5185 23.7772 79.7779 22.9764 79.2613 21.9775C78.7618 20.9614 78.5121 19.8419 78.5121 18.6192C78.5121 17.3964 78.7618 16.2856 79.2613 15.2867C79.7779 14.2706 80.5185 13.4697 81.4829 12.8842C82.4646 12.2814 83.6185 11.98 84.9446 11.98C86.2535 11.98 87.3901 12.2814 88.3546 12.8842C89.3363 13.4697 90.0854 14.2706 90.6021 15.2867C91.1188 16.2856 91.3771 17.3964 91.3771 18.6192C91.3771 19.8419 91.1188 20.9614 90.6021 21.9775C90.0854 22.9764 89.3363 23.7772 88.3546 24.38C87.3901 24.9656 86.2535 25.2583 84.9446 25.2583ZM84.9446 22.9592C86.1157 22.9592 87.0199 22.5717 87.6571 21.7967C88.2943 21.0217 88.6129 19.9625 88.6129 18.6192C88.6129 17.2758 88.2943 16.2167 87.6571 15.4417C87.0199 14.6667 86.1157 14.2792 84.9446 14.2792C83.7735 14.2792 82.8693 14.6667 82.2321 15.4417C81.5949 16.2167 81.2763 17.2758 81.2763 18.6192C81.2763 19.9625 81.5949 21.0217 82.2321 21.7967C82.8693 22.5717 83.7735 22.9592 84.9446 22.9592ZM98.8072 31.4842C96.9989 31.4842 95.5436 31.1483 94.4414 30.4767C93.3391 29.8222 92.788 28.9094 92.788 27.7383C92.788 26.4639 93.5028 25.465 94.9322 24.7417C94.14 24.3111 93.7439 23.7428 93.7439 23.0367C93.7439 22.2272 94.2175 21.6158 95.1647 21.2025C94.4758 20.7719 93.9505 20.195 93.5889 19.4717C93.2272 18.7311 93.0464 17.9044 93.0464 16.9917C93.0464 16.0617 93.253 15.2178 93.6664 14.46C94.0797 13.7022 94.6825 13.0994 95.4747 12.6517C96.2669 12.2039 97.2055 11.98 98.2905 11.98C99.4272 11.98 100.435 12.2814 101.313 12.8842C102.14 12.4364 103.139 12.2125 104.31 12.2125H104.775L104.516 13.9433H103.69C103.276 13.9433 102.897 13.9864 102.553 14.0725C103.19 14.8992 103.509 15.8722 103.509 16.9917C103.509 17.9389 103.302 18.8 102.889 19.575C102.476 20.35 101.873 20.9614 101.081 21.4092C100.288 21.8569 99.3583 22.0808 98.2905 22.0808C97.7566 22.0808 97.2314 22.0119 96.7147 21.8742C96.4047 21.9775 96.2497 22.1669 96.2497 22.4425C96.2497 22.6492 96.3703 22.8214 96.6114 22.9592C96.8697 23.0969 97.2744 23.2003 97.8255 23.2692L100.719 23.7083C102.131 23.915 103.207 24.3197 103.948 24.9225C104.689 25.5253 105.059 26.3519 105.059 27.4025C105.059 28.6942 104.499 29.6931 103.38 30.3992C102.277 31.1225 100.753 31.4842 98.8072 31.4842ZM98.2905 20.0142C99.1516 20.0142 99.8147 19.7472 100.28 19.2133C100.762 18.6622 101.003 17.9303 101.003 17.0175C101.003 16.1219 100.762 15.4072 100.28 14.8733C99.8147 14.3222 99.1516 14.0467 98.2905 14.0467C97.4122 14.0467 96.7319 14.3222 96.2497 14.8733C95.7847 15.4072 95.5522 16.1219 95.5522 17.0175C95.5522 17.9303 95.7847 18.6622 96.2497 19.2133C96.7319 19.7472 97.4122 20.0142 98.2905 20.0142ZM98.9622 29.2625C101.322 29.2625 102.501 28.6856 102.501 27.5317C102.501 27.0667 102.312 26.705 101.933 26.4467C101.554 26.2056 100.951 26.0075 100.125 25.8525L96.8439 25.3358C95.7416 25.8008 95.1905 26.4467 95.1905 27.2733C95.1905 27.945 95.5178 28.4444 96.1722 28.7717C96.8439 29.0989 97.7739 29.2625 98.9622 29.2625ZM112.191 25.2583C110.865 25.2583 109.711 24.9656 108.729 24.38C107.765 23.7772 107.024 22.9764 106.507 21.9775C106.008 20.9614 105.758 19.8419 105.758 18.6192C105.758 17.3964 106.008 16.2856 106.507 15.2867C107.024 14.2706 107.765 13.4697 108.729 12.8842C109.711 12.2814 110.865 11.98 112.191 11.98C113.5 11.98 114.636 12.2814 115.601 12.8842C116.582 13.4697 117.332 14.2706 117.848 15.2867C118.365 16.2856 118.623 17.3964 118.623 18.6192C118.623 19.8419 118.365 20.9614 117.848 21.9775C117.332 22.9764 116.582 23.7772 115.601 24.38C114.636 24.9656 113.5 25.2583 112.191 25.2583ZM112.191 22.9592C113.362 22.9592 114.266 22.5717 114.903 21.7967C115.54 21.0217 115.859 19.9625 115.859 18.6192C115.859 17.2758 115.54 16.2167 114.903 15.4417C114.266 14.6667 113.362 14.2792 112.191 14.2792C111.02 14.2792 110.115 14.6667 109.478 15.4417C108.841 16.2167 108.522 17.2758 108.522 18.6192C108.522 19.9625 108.841 21.0217 109.478 21.7967C110.115 22.5717 111.02 22.9592 112.191 22.9592Z" fill="#161616"/>
<path d="M8.84031 6.68671L6.42293 11.585L1.01436 12.373C0.0444412 12.5136 -0.344265 13.7086 0.359108 14.393L4.27209 18.2037L3.3466 23.5866C3.18001 24.5596 4.20545 25.2884 5.06431 24.8334L9.90278 22.2917L14.7412 24.8334C15.6001 25.2847 16.6255 24.5596 16.459 23.5866L15.5335 18.2037L19.4464 14.393C20.1498 13.7086 19.7611 12.5136 18.7912 12.373L13.3826 11.585L10.9652 6.68671C10.5321 5.8136 9.27714 5.8025 8.84031 6.68671Z" fill="#161616"/>
</svg>
